<?xml version="1.0" standalone="no"?>
<!DOCTYPE svg PUBLIC "-//W3C//DTD SVG 20010904//EN"
 "http://www.w3.org/TR/2001/REC-SVG-20010904/DTD/svg10.dtd">
<svg version="1.0" xmlns="http://www.w3.org/2000/svg"
 width="368.000000pt" height="368.000000pt" viewBox="0 0 368.000000 368.000000"
 preserveAspectRatio="xMidYMid meet">
<metadata>
Created by potrace 1.11, written by Peter Selinger 2001-2013
</metadata>
<g transform="translate(0.000000,368.000000) scale(0.100000,-0.100000)"
fill="#000000" stroke="none">
<path d="M1115 3475 c-117 -20 -190 -68 -266 -175 -39 -54 -93 -188 -105 -260
-3 -14 -7 -31 -9 -38 -14 -38 -31 -183 -39 -325 -2 -38 -6 -70 -8 -71 -1 -1
-41 -25 -88 -52 -46 -27 -94 -54 -105 -61 -11 -7 -30 -18 -42 -24 -13 -7 -23
-16 -23 -21 0 -4 -5 -8 -11 -8 -30 0 -212 -160 -284 -250 -45 -57 -99 -145
-97 -160 0 -3 -4 -12 -8 -20 -12 -23 -24 -99 -22 -145 6 -135 121 -310 301
-455 24 -19 50 -41 57 -47 7 -7 17 -13 22 -13 6 0 12 -4 14 -8 4 -11 156 -112
168 -112 5 0 10 -3 12 -7 2 -5 15 -15 30 -23 l27 -15 5 -185 c7 -243 21 -343
68 -470 119 -329 348 -413 743 -272 85 31 260 108 285 127 8 6 31 19 52 30
l36 18 62 -36 c34 -20 63 -37 66 -37 2 0 22 -11 44 -25 22 -14 46 -25 55 -25
8 0 15 -4 15 -10 0 -5 9 -10 20 -10 11 0 20 -5 20 -11 0 -5 5 -7 10 -4 6 4 17
1 25 -5 8 -7 15 -9 15 -5 0 4 6 3 13 -2 19 -16 108 -44 157 -50 25 -3 50 -9
55 -13 18 -12 215 -1 226 13 3 4 19 9 36 10 17 1 29 6 25 11 -3 5 2 7 11 3 9
-3 19 -1 23 5 4 7 3 8 -4 4 -7 -4 -12 -5 -12 -3 0 8 74 51 83 49 5 -2 6 2 2 7
-3 6 8 24 24 41 16 17 39 51 50 76 12 24 24 44 27 44 3 0 2 -5 -2 -12 -4 -7
-3 -8 4 -4 6 4 9 13 5 22 -3 8 1 22 9 32 9 9 16 24 16 32 1 20 8 49 21 83 6
16 11 40 11 53 0 17 4 23 12 18 7 -5 8 -3 3 6 -4 7 -2 16 6 21 11 7 11 9 1 9
-7 0 -10 5 -6 11 4 7 7 25 6 40 0 16 2 29 6 29 4 0 8 24 9 53 2 28 5 75 7 102
2 28 4 59 5 71 1 12 13 26 31 35 67 31 268 151 292 174 15 14 31 25 37 25 5 0
11 3 13 8 2 4 24 24 49 44 26 21 66 59 90 84 24 26 54 58 67 71 12 13 22 26
22 29 0 3 9 18 19 33 37 51 69 167 66 234 -10 199 -193 416 -537 636 -55 35
-66 47 -61 64 2 12 4 29 4 37 -1 8 -1 35 0 60 3 107 2 161 -4 166 -3 3 -1 19
3 35 5 16 5 29 1 29 -4 0 -7 10 -8 23 -4 207 -91 455 -195 557 -82 80 -169
113 -302 112 -78 -1 -119 -8 -243 -42 -43 -12 -84 -27 -90 -32 -7 -6 -13 -7
-13 -3 0 4 -11 0 -25 -9 -14 -9 -25 -14 -25 -11 0 3 -69 -30 -154 -74 -126
-64 -157 -76 -168 -66 -12 12 -273 150 -273 145 0 -1 -18 5 -40 14 -93 40
-210 67 -335 80 -14 1 -57 -3 -95 -9z m1119 -909 c124 -132 208 -232 288 -341
33 -44 65 -87 71 -95 19 -24 70 -102 87 -134 16 -28 15 -34 -28 -160 -24 -72
-45 -135 -46 -141 -2 -5 -7 -19 -11 -30 -4 -11 -26 -64 -47 -118 -42 -107
-153 -336 -196 -405 -26 -41 -45 -52 -127 -68 -11 -2 -31 -7 -45 -10 -97 -20
-264 -47 -375 -60 -27 -3 -93 -8 -146 -11 l-96 -5 -69 72 c-38 40 -78 83 -90
95 -39 40 -167 190 -207 243 -22 28 -43 52 -48 52 -5 0 -9 6 -9 13 0 8 -10 25
-21 38 -12 13 -46 61 -75 106 l-54 82 26 88 c14 48 38 126 55 173 16 47 32 92
34 100 16 57 87 226 146 344 72 144 88 170 97 161 3 -3 11 0 18 6 7 6 31 11
52 12 22 1 37 6 34 11 -3 5 3 6 13 3 9 -4 24 -2 31 4 8 6 14 9 14 6 0 -3 19 1
43 8 23 6 52 11 65 10 12 -1 22 1 22 5 0 4 22 6 49 6 27 -1 47 2 44 7 -2 4 2
7 9 8 7 0 21 2 31 4 9 2 17 -1 17 -7 0 -5 6 -3 14 5 8 8 26 13 40 12 14 -2 28
1 31 6 3 4 16 4 30 -1 16 -6 25 -6 25 0 0 6 10 8 22 7 12 -2 35 -1 51 2 16 3
51 7 78 7 l49 2 104 -112z"/>
<path d="M1750 2155 c-65 -17 -103 -39 -154 -90 -64 -65 -89 -123 -94 -216 -5
-96 14 -159 70 -230 42 -54 129 -115 160 -113 10 1 18 -3 18 -7 0 -5 18 -9 40
-9 22 0 40 -5 40 -11 0 -5 5 -7 10 -4 6 4 7 12 4 18 -5 9 -4 9 6 0 9 -9 19 -9
33 -2 11 6 17 7 14 2 -3 -5 5 -9 18 -9 14 0 21 5 18 12 -3 8 4 11 21 10 15 -2
27 3 31 11 3 9 12 13 20 9 8 -3 14 -2 14 2 -3 19 2 25 11 12 7 -11 10 -11 10
-2 0 8 5 10 13 6 7 -5 6 0 -3 11 -9 11 -10 16 -2 11 6 -4 12 -2 12 3 0 6 7 11
15 11 8 0 15 6 15 14 0 8 9 24 21 37 l20 24 -17 -30 -16 -30 20 24 c11 14 17
31 14 40 -3 9 -1 12 6 7 8 -5 12 1 12 18 0 14 8 30 18 35 9 6 12 11 6 11 -11
0 -15 30 -4 30 4 0 5 16 3 36 -3 27 -1 34 9 28 8 -5 7 -1 -2 11 -12 14 -12 19
-2 23 10 3 8 8 -5 18 -10 7 -13 14 -6 14 9 0 8 8 -3 28 -7 15 -14 35 -14 45 0
9 -4 17 -9 17 -5 0 -12 8 -16 19 -9 29 -90 108 -132 130 -70 35 -167 45 -243
26z"/>
</g>
</svg>
